<svg width="91" height="94" viewBox="0 0 91 94" fill="none" xmlns="http://www.w3.org/2000/svg">
<path d="M12.1157 0H0.0425329L19.078 94H31.1194C31.1079 93.9551 31.0993 93.9044 31.0877 93.8607L12.1157 0ZM87.3887 34.1418L91 16.0279H73.6793L76.4274 0H20.5343L24.1479 17.9912H73.2835L71.6437 27.7592H50.2524L26.1061 27.8449L30.3827 48.5444L46.5985 48.4581H67.6961L67.6338 48.7246C64.63 58.1661 55.2086 60.4656 52.3532 61.5653C50.9188 62.1174 47.7207 62.6954 44.8831 63.1342L44.8549 63.152H81.1782L85.2672 44.0502H68.816L70.5279 34.1418H87.3887Z" fill="#F7921E"/>
<path d="M3.02738 93.9139C4.71244 93.9139 6.05477 92.5602 6.05477 90.893C6.05477 89.2115 4.71244 87.8721 3.02738 87.8721C1.35661 87.8721 0 89.2115 0 90.893C0 92.5602 1.35661 93.9139 3.02738 93.9139ZM3.02738 88.2853C4.46968 88.2853 5.64065 89.4395 5.64065 90.893C5.64065 92.3322 4.46968 93.5149 3.02738 93.5149C1.57081 93.5149 0.399843 92.3322 0.399843 90.893C0.399843 89.4395 1.57081 88.2853 3.02738 88.2853ZM3.85563 92.6314H4.42684L3.49863 91.2492C3.69855 91.2492 4.384 90.9927 4.384 90.2232C4.384 89.582 3.88419 89.1688 3.28443 89.1688H1.8707V92.6314H2.32766V91.2635H2.95598L3.85563 92.6314ZM3.28443 89.5678C3.64143 89.5678 3.91275 89.8385 3.91275 90.2232C3.91275 90.5795 3.64143 90.8502 3.28443 90.8502H2.32766V89.5678H3.28443Z" fill="#F7921E"/>
</svg>
